M48
;GenerationSoftware,Autodesk,EAGLE,9.6.2*%
;CreationDate,2021-01-26T09:10:50Z*%
FMAT,2
ICI,OFF
METRIC,TZ,000.000
T4C0.300
T3C0.750
T2C1.016
T1C3.302
%
G90
M71
T1
X28448Y100584
X48768Y100584
X2540Y22860
X22860Y22860
X54356Y126492
X28448Y22860
X48768Y22860
X54356Y100584
X54356Y22860
X74676Y22860
X74676Y100584
X80264Y22860
X100584Y22860
X74676Y126492
X106172Y22860
X126492Y22860
X80264Y100584
X2540Y48768
X22860Y48768
X100584Y100584
X28448Y48768
X48768Y48768
X106172Y126492
X54356Y48768
X74676Y48768
X106172Y100584
X80264Y48768
X100584Y48768
X126492Y100584
X106172Y48768
X126492Y48768
X80264Y126492
X2540Y74676
X22860Y74676
X2540Y126492
X28448Y74676
X48768Y74676
X22860Y126492
X54356Y74676
X74676Y74676
X100584Y126492
X80264Y74676
X100584Y74676
X28448Y126492
X106172Y74676
X126492Y74676
X48768Y126492
X2540Y100584
X22860Y100584
X126492Y126492
T2
X109982Y127762
X39878Y1270
X63246Y127762
X65786Y127762
X70866Y127762
X60706Y127762
X68326Y127762
X58166Y127762
X86614Y104902
X89154Y104902
X91694Y104902
X94234Y104902
X89154Y127762
X91694Y127762
X16510Y1270
X96774Y127762
X86614Y127762
X94234Y127762
X84074Y127762
X112522Y104902
X115062Y104902
X117602Y104902
X120142Y104902
X115062Y127762
X117602Y127762
X122682Y127762
X112522Y127762
X8890Y1270
X11430Y1270
X13970Y1270
X120142Y127762
X11430Y24130
X13970Y24130
X19050Y24130
X8890Y24130
X16510Y24130
X6350Y24130
X34798Y1270
X37338Y1270
X42418Y1270
X37338Y24130
X39878Y24130
X44958Y24130
X34798Y24130
X42418Y24130
X32258Y24130
X60706Y1270
X63246Y1270
X65786Y1270
X68326Y1270
X63246Y24130
X65786Y24130
X70866Y24130
X60706Y24130
X68326Y24130
X58166Y24130
X86614Y1270
X89154Y1270
X91694Y1270
X94234Y1270
X89154Y24130
X91694Y24130
X96774Y24130
X86614Y24130
X94234Y24130
X84074Y24130
X112522Y1270
X115062Y1270
X117602Y1270
X120142Y1270
X115062Y24130
X117602Y24130
X122682Y24130
X112522Y24130
X120142Y24130
X109982Y24130
X8890Y27178
X11430Y27178
X13970Y27178
X16510Y27178
X11430Y50038
X13970Y50038
X19050Y50038
X8890Y50038
X16510Y50038
X6350Y50038
X34798Y27178
X37338Y27178
X39878Y27178
X42418Y27178
X37338Y50038
X39878Y50038
X44958Y50038
X34798Y50038
X42418Y50038
X32258Y50038
X60706Y27178
X63246Y27178
X65786Y27178
X68326Y27178
X63246Y50038
X65786Y50038
X70866Y50038
X60706Y50038
X68326Y50038
X58166Y50038
X86614Y27178
X89154Y27178
X91694Y27178
X94234Y27178
X89154Y50038
X91694Y50038
X96774Y50038
X86614Y50038
X94234Y50038
X84074Y50038
X112522Y27178
X115062Y27178
X117602Y27178
X120142Y27178
X115062Y50038
X117602Y50038
X122682Y50038
X112522Y50038
X120142Y50038
X109982Y50038
X8890Y53086
X11430Y53086
X13970Y53086
X16510Y53086
X11430Y75946
X13970Y75946
X19050Y75946
X8890Y75946
X16510Y75946
X6350Y75946
X34798Y53086
X37338Y53086
X39878Y53086
X42418Y53086
X37338Y75946
X39878Y75946
X44958Y75946
X34798Y75946
X42418Y75946
X32258Y75946
X60706Y53086
X63246Y53086
X65786Y53086
X68326Y53086
X63246Y75946
X65786Y75946
X70866Y75946
X60706Y75946
X68326Y75946
X58166Y75946
X86614Y53086
X89154Y53086
X91694Y53086
X94234Y53086
X89154Y75946
X91694Y75946
X96774Y75946
X86614Y75946
X94234Y75946
X84074Y75946
X112522Y53086
X115062Y53086
X117602Y53086
X120142Y53086
X115062Y75946
X117602Y75946
X122682Y75946
X112522Y75946
X120142Y75946
X109982Y75946
X8890Y78994
X11430Y78994
X13970Y78994
X16510Y78994
X11430Y101854
X13970Y101854
X19050Y101854
X8890Y101854
X16510Y101854
X6350Y101854
X34798Y78994
X37338Y78994
X39878Y78994
X42418Y78994
X37338Y101854
X39878Y101854
X44958Y101854
X34798Y101854
X42418Y101854
X32258Y101854
X60706Y78994
X63246Y78994
X65786Y78994
X68326Y78994
X63246Y101854
X65786Y101854
X70866Y101854
X60706Y101854
X68326Y101854
X58166Y101854
X86614Y78994
X89154Y78994
X91694Y78994
X94234Y78994
X89154Y101854
X91694Y101854
X96774Y101854
X86614Y101854
X94234Y101854
X84074Y101854
X112522Y78994
X115062Y78994
X117602Y78994
X120142Y78994
X115062Y101854
X117602Y101854
X122682Y101854
X112522Y101854
X120142Y101854
X109982Y101854
X8890Y104902
X11430Y104902
X13970Y104902
X16510Y104902
X11430Y127762
X13970Y127762
X19050Y127762
X8890Y127762
X16510Y127762
X6350Y127762
X34798Y104902
X37338Y104902
X39878Y104902
X42418Y104902
X37338Y127762
X39878Y127762
X44958Y127762
X34798Y127762
X42418Y127762
X32258Y127762
X60706Y104902
X63246Y104902
X65786Y104902
X68326Y104902
T3
X12700Y17260
X38608Y17260
X64516Y17260
X90424Y17260
X116332Y17260
X12700Y43168
X38608Y43168
X64516Y43168
X90424Y43168
X116332Y43168
X12700Y69076
X38608Y69076
X90424Y69076
X116332Y69076
X12700Y94984
X38608Y94984
X64516Y94984
X90424Y94984
X116332Y94984
X12700Y120892
X38608Y120892
X64516Y120892
X90424Y120892
X116332Y120892
X64516Y69076
T4
X19050Y34544
X20320Y33528
X1270Y36068
X24130Y36068
X1270Y43053
X5842Y44323
X9398Y44323
X8890Y37465
X1778Y29083
X6350Y29718
X19050Y29718
X8890Y34798
X20320Y41783
X15240Y41148
X13970Y39624
X16510Y39624
X19558Y39751
X18796Y41275
X18796Y44069
X16510Y46228
X17780Y44958
X17780Y47498
X19050Y46228
X20320Y44958
X20320Y43688
X15748Y47498
X15748Y48641
X17780Y48641
X24130Y41148
X22860Y44958
X10160Y47498
X12700Y29083
X15240Y29083
X24130Y28448
X12700Y47498
X20955Y38608
X16510Y34798
X11430Y34798
X1651Y30988
X13970Y30988
X19052Y36705
X17780Y38179
X15240Y31646
X16510Y30330
X12700Y40005
X11684Y38227
X17272Y38989
X10668Y39878
X10668Y42164
X14986Y42164
X7620Y44323
X17907Y43688
X23749Y30988
X29718Y36576
X44958Y35560
X47498Y35560
X32258Y36576
X39370Y38100
X35306Y39878
X36068Y32004
X38608Y44958
X29718Y37592
X32258Y37592
X44958Y34544
X46228Y33528
X27178Y36068
X50038Y36068
X27178Y43053
X31750Y44323
X35306Y44323
X34798Y37465
X27686Y29083
X32258Y29718
X44958Y29718
X34798Y34798
X46228Y41783
X41148Y41148
X39878Y39624
X42418Y39624
X45466Y39751
X44704Y41275
X44704Y44069
X42418Y46228
X43688Y44958
X43688Y47498
X44958Y46228
X46228Y44958
X46228Y43688
X41656Y47498
X41656Y48641
X43688Y48641
X50038Y41148
X48768Y44958
X36068Y47498
X38608Y29083
X41148Y29083
X50038Y28448
X38608Y47498
X46863Y38608
X42418Y34798
X37338Y34798
X27559Y30988
X39878Y30988
X44960Y36705
X43688Y38179
X41148Y31646
X42418Y30330
X38608Y40005
X37592Y38227
X43180Y38989
X36576Y39878
X36576Y42164
X40894Y42164
X33528Y44323
X43815Y43688
X49657Y30988
X55626Y36576
X70866Y35560
X73406Y35560
X58166Y36576
X65278Y38100
X61214Y39878
X61976Y32004
X64516Y44958
X55626Y37592
X58166Y37592
X70866Y34544
X72136Y33528
X53086Y36068
X75946Y36068
X53086Y43053
X57658Y44323
X61214Y44323
X60706Y37465
X53594Y29083
X58166Y29718
X70866Y29718
X60706Y34798
X72136Y41783
X67056Y41148
X65786Y39624
X68326Y39624
X71374Y39751
X70612Y41275
X70612Y44069
X68326Y46228
X69596Y44958
X69596Y47498
X70866Y46228
X72136Y44958
X72136Y43688
X67564Y47498
X67564Y48641
X69596Y48641
X75946Y41148
X74676Y44958
X61976Y47498
X64516Y29083
X67056Y29083
X75946Y28448
X64516Y47498
X72771Y38608
X68326Y34798
X63246Y34798
X53467Y30988
X65786Y30988
X70868Y36705
X69596Y38179
X67056Y31646
X68326Y30330
X64516Y40005
X63500Y38227
X69088Y38989
X62484Y39878
X62484Y42164
X66802Y42164
X59436Y44323
X69723Y43688
X75565Y30988
X81534Y36576
X96774Y35560
X99314Y35560
X84074Y36576
X91186Y38100
X87122Y39878
X87884Y32004
X90424Y44958
X81534Y37592
X84074Y37592
X96774Y34544
X98044Y33528
X78994Y36068
X101854Y36068
X78994Y43053
X83566Y44323
X87122Y44323
X86614Y37465
X79502Y29083
X84074Y29718
X96774Y29718
X86614Y34798
X98044Y41783
X92964Y41148
X91694Y39624
X94234Y39624
X97282Y39751
X96520Y41275
X96520Y44069
X94234Y46228
X95504Y44958
X95504Y47498
X96774Y46228
X98044Y44958
X98044Y43688
X93472Y47498
X93472Y48641
X95504Y48641
X101854Y41148
X100584Y44958
X87884Y47498
X90424Y29083
X92964Y29083
X101854Y28448
X90424Y47498
X98679Y38608
X94234Y34798
X89154Y34798
X79375Y30988
X91694Y30988
X96776Y36705
X95504Y38179
X92964Y31646
X94234Y30330
X90424Y40005
X89408Y38227
X94996Y38989
X88392Y39878
X88392Y42164
X92710Y42164
X85344Y44323
X95631Y43688
X101473Y30988
X107442Y36576
X122682Y35560
X125222Y35560
X109982Y36576
X117094Y38100
X113030Y39878
X113792Y32004
X116332Y44958
X107442Y37592
X109982Y37592
X122682Y34544
X123952Y33528
X104902Y36068
X127762Y36068
X104902Y43053
X109474Y44323
X113030Y44323
X112522Y37465
X105410Y29083
X109982Y29718
X122682Y29718
X112522Y34798
X123952Y41783
X118872Y41148
X117602Y39624
X120142Y39624
X123190Y39751
X122428Y41275
X122428Y44069
X120142Y46228
X121412Y44958
X121412Y47498
X122682Y46228
X123952Y44958
X123952Y43688
X119380Y47498
X119380Y48641
X121412Y48641
X127762Y41148
X126492Y44958
X113792Y47498
X116332Y29083
X118872Y29083
X127762Y28448
X116332Y47498
X124587Y38608
X120142Y34798
X115062Y34798
X105283Y30988
X117602Y30988
X122684Y36705
X121412Y38179
X118872Y31646
X120142Y30330
X116332Y40005
X115316Y38227
X120904Y38989
X114300Y39878
X114300Y42164
X118618Y42164
X111252Y44323
X121539Y43688
X127381Y30988
X3810Y62484
X19050Y61468
X21590Y61468
X6350Y62484
X13462Y64008
X9398Y65786
X10160Y57912
X12700Y70866
X3810Y63500
X6350Y63500
X19050Y60452
X20320Y59436
X1270Y61976
X24130Y61976
X1270Y68961
X5842Y70231
X9398Y70231
X8890Y63373
X1778Y54991
X6350Y55626
X19050Y55626
X8890Y60706
X20320Y67691
X15240Y67056
X13970Y65532
X16510Y65532
X19558Y65659
X18796Y67183
X18796Y69977
X16510Y72136
X17780Y70866
X17780Y73406
X19050Y72136
X20320Y70866
X20320Y69596
X15748Y73406
X15748Y74549
X17780Y74549
X24130Y67056
X22860Y70866
X10160Y73406
X12700Y54991
X15240Y54991
X24130Y54356
X12700Y73406
X20955Y64516
X16510Y60706
X11430Y60706
X1651Y56896
X13970Y56896
X19052Y62613
X17780Y64087
X15240Y57554
X16510Y56238
X12700Y65913
X11684Y64135
X17272Y64897
X10668Y65786
X10668Y68072
X14986Y68072
X7620Y70231
X17907Y69596
X23749Y56896
X29718Y62484
X44958Y61468
X47498Y61468
X32258Y62484
X39370Y64008
X35306Y65786
X36068Y57912
X38608Y70866
X29718Y63500
X32258Y63500
X44958Y60452
X46228Y59436
X27178Y61976
X50038Y61976
X27178Y68961
X31750Y70231
X35306Y70231
X34798Y63373
X27686Y54991
X32258Y55626
X44958Y55626
X34798Y60706
X46228Y67691
X41148Y67056
X39878Y65532
X42418Y65532
X45466Y65659
X44704Y67183
X44704Y69977
X42418Y72136
X43688Y70866
X43688Y73406
X44958Y72136
X46228Y70866
X46228Y69596
X41656Y73406
X41656Y74549
X43688Y74549
X50038Y67056
X48768Y70866
X36068Y73406
X38608Y54991
X41148Y54991
X50038Y54356
X38608Y73406
X46863Y64516
X42418Y60706
X37338Y60706
X27559Y56896
X39878Y56896
X44960Y62613
X43688Y64087
X41148Y57554
X42418Y56238
X38608Y65913
X37592Y64135
X43180Y64897
X36576Y65786
X36576Y68072
X40894Y68072
X33528Y70231
X43815Y69596
X49657Y56896
X55626Y62484
X70866Y61468
X73406Y61468
X58166Y62484
X65278Y64008
X61214Y65786
X61976Y57912
X64516Y70866
X55626Y63500
X58166Y63500
X70866Y60452
X72136Y59436
X53086Y61976
X75946Y61976
X53086Y68961
X57658Y70231
X61214Y70231
X60706Y63373
X53594Y54991
X58166Y55626
X70866Y55626
X60706Y60706
X72136Y67691
X67056Y67056
X65786Y65532
X68326Y65532
X71374Y65659
X70612Y67183
X70612Y69977
X68326Y72136
X69596Y70866
X69596Y73406
X70866Y72136
X72136Y70866
X72136Y69596
X67564Y73406
X67564Y74549
X69596Y74549
X75946Y67056
X74676Y70866
X61976Y73406
X64516Y54991
X67056Y54991
X75946Y54356
X64516Y73406
X72771Y64516
X68326Y60706
X63246Y60706
X53467Y56896
X65786Y56896
X70868Y62613
X69596Y64087
X67056Y57554
X68326Y56238
X64516Y65913
X63500Y64135
X69088Y64897
X62484Y65786
X62484Y68072
X66802Y68072
X59436Y70231
X69723Y69596
X75565Y56896
X81534Y62484
X96774Y61468
X99314Y61468
X84074Y62484
X91186Y64008
X87122Y65786
X87884Y57912
X90424Y70866
X81534Y63500
X84074Y63500
X96774Y60452
X98044Y59436
X78994Y61976
X101854Y61976
X78994Y68961
X83566Y70231
X87122Y70231
X86614Y63373
X79502Y54991
X84074Y55626
X96774Y55626
X86614Y60706
X98044Y67691
X92964Y67056
X91694Y65532
X94234Y65532
X97282Y65659
X96520Y67183
X96520Y69977
X94234Y72136
X95504Y70866
X95504Y73406
X96774Y72136
X98044Y70866
X98044Y69596
X93472Y73406
X93472Y74549
X95504Y74549
X101854Y67056
X100584Y70866
X87884Y73406
X90424Y54991
X92964Y54991
X101854Y54356
X90424Y73406
X98679Y64516
X94234Y60706
X89154Y60706
X79375Y56896
X91694Y56896
X96776Y62613
X95504Y64087
X92964Y57554
X94234Y56238
X90424Y65913
X89408Y64135
X94996Y64897
X88392Y65786
X88392Y68072
X92710Y68072
X85344Y70231
X95631Y69596
X101473Y56896
X107442Y62484
X122682Y61468
X125222Y61468
X109982Y62484
X117094Y64008
X113030Y65786
X113792Y57912
X116332Y70866
X107442Y63500
X109982Y63500
X122682Y60452
X123952Y59436
X104902Y61976
X127762Y61976
X104902Y68961
X109474Y70231
X113030Y70231
X112522Y63373
X105410Y54991
X109982Y55626
X122682Y55626
X112522Y60706
X123952Y67691
X118872Y67056
X117602Y65532
X120142Y65532
X123190Y65659
X122428Y67183
X122428Y69977
X120142Y72136
X121412Y70866
X121412Y73406
X122682Y72136
X123952Y70866
X123952Y69596
X119380Y73406
X119380Y74549
X121412Y74549
X127762Y67056
X126492Y70866
X113792Y73406
X116332Y54991
X118872Y54991
X127762Y54356
X116332Y73406
X124587Y64516
X120142Y60706
X115062Y60706
X105283Y56896
X117602Y56896
X122684Y62613
X121412Y64087
X118872Y57554
X120142Y56238
X116332Y65913
X115316Y64135
X120904Y64897
X114300Y65786
X114300Y68072
X118618Y68072
X111252Y70231
X121539Y69596
X127381Y56896
X3810Y88392
X19050Y87376
X21590Y87376
X6350Y88392
X13462Y89916
X79375Y5080
X10160Y83820
X12700Y96774
X3810Y89408
X6350Y89408
X19050Y86360
X20320Y85344
X1270Y87884
X24130Y87884
X1270Y94869
X5842Y96139
X9398Y96139
X8890Y89281
X1778Y80899
X6350Y81534
X19050Y81534
X8890Y86614
X20320Y93599
X15240Y92964
X13970Y91440
X16510Y91440
X19558Y91567
X18796Y93091
X18796Y95885
X16510Y98044
X17780Y96774
X17780Y99314
X19050Y98044
X20320Y96774
X20320Y95504
X15748Y99314
X15748Y100457
X17780Y100457
X24130Y92964
X22860Y96774
X10160Y99314
X12700Y80899
X15240Y80899
X24130Y80264
X12700Y99314
X20955Y90424
X16510Y86614
X11430Y86614
X1651Y82804
X13970Y82804
X19052Y88521
X17780Y89995
X15240Y83462
X16510Y82146
X12700Y91821
X11684Y90043
X17272Y90805
X10668Y91694
X10668Y93980
X14986Y93980
X7620Y96139
X17907Y95504
X23749Y82804
X29718Y88392
X44958Y87376
X47498Y87376
X32258Y88392
X39370Y89916
X35306Y91694
X36068Y83820
X38608Y96774
X29718Y89408
X32258Y89408
X44958Y86360
X46228Y85344
X27178Y87884
X50038Y87884
X27178Y94869
X31750Y96139
X35306Y96139
X34798Y89281
X27686Y80899
X32258Y81534
X44958Y81534
X34798Y86614
X46228Y93599
X41148Y92964
X39878Y91440
X42418Y91440
X45466Y91567
X44704Y93091
X44704Y95885
X42418Y98044
X43688Y96774
X43688Y99314
X44958Y98044
X46228Y96774
X46228Y95504
X41656Y99314
X41656Y100457
X43688Y100457
X50038Y92964
X48768Y96774
X36068Y99314
X38608Y80899
X41148Y80899
X50038Y80264
X38608Y99314
X46863Y90424
X42418Y86614
X37338Y86614
X27559Y82804
X39878Y82804
X44960Y88521
X43688Y89995
X41148Y83462
X42418Y82146
X38608Y91821
X37592Y90043
X43180Y90805
X36576Y91694
X36576Y93980
X40894Y93980
X33528Y96139
X43815Y95504
X49657Y82804
X55626Y88392
X70866Y87376
X73406Y87376
X58166Y88392
X65278Y89916
X61214Y91694
X61976Y83820
X64516Y96774
X55626Y89408
X58166Y89408
X70866Y86360
X72136Y85344
X53086Y87884
X75946Y87884
X53086Y94869
X57658Y96139
X61214Y96139
X60706Y89281
X53594Y80899
X58166Y81534
X70866Y81534
X60706Y86614
X72136Y93599
X67056Y92964
X65786Y91440
X68326Y91440
X71374Y91567
X70612Y93091
X70612Y95885
X68326Y98044
X69596Y96774
X69596Y99314
X70866Y98044
X72136Y96774
X72136Y95504
X67564Y99314
X67564Y100457
X69596Y100457
X75946Y92964
X74676Y96774
X61976Y99314
X64516Y80899
X67056Y80899
X75946Y80264
X64516Y99314
X72771Y90424
X68326Y86614
X63246Y86614
X53467Y82804
X65786Y82804
X70868Y88521
X69596Y89995
X67056Y83462
X68326Y82146
X64516Y91821
X63500Y90043
X69088Y90805
X62484Y91694
X62484Y93980
X66802Y93980
X59436Y96139
X69723Y95504
X75565Y82804
X81534Y88392
X96774Y87376
X99314Y87376
X84074Y88392
X91186Y89916
X87122Y91694
X87884Y83820
X90424Y96774
X81534Y89408
X84074Y89408
X96774Y86360
X98044Y85344
X78994Y87884
X101854Y87884
X78994Y94869
X83566Y96139
X87122Y96139
X86614Y89281
X79502Y80899
X84074Y81534
X96774Y81534
X86614Y86614
X98044Y93599
X92964Y92964
X91694Y91440
X94234Y91440
X97282Y91567
X96520Y93091
X96520Y95885
X94234Y98044
X95504Y96774
X95504Y99314
X96774Y98044
X98044Y96774
X98044Y95504
X93472Y99314
X93472Y100457
X95504Y100457
X101854Y92964
X100584Y96774
X87884Y99314
X90424Y80899
X92964Y80899
X101854Y80264
X90424Y99314
X98679Y90424
X94234Y86614
X89154Y86614
X79375Y82804
X91694Y82804
X96776Y88521
X95504Y89995
X92964Y83462
X94234Y82146
X90424Y91821
X89408Y90043
X94996Y90805
X88392Y91694
X88392Y93980
X92710Y93980
X85344Y96139
X95631Y95504
X101473Y82804
X107442Y88392
X122682Y87376
X125222Y87376
X109982Y88392
X117094Y89916
X113030Y91694
X113792Y83820
X116332Y96774
X107442Y89408
X109982Y89408
X122682Y86360
X123952Y85344
X104902Y87884
X127762Y87884
X104902Y94869
X109474Y96139
X113030Y96139
X112522Y89281
X105410Y80899
X109982Y81534
X122682Y81534
X112522Y86614
X123952Y93599
X118872Y92964
X117602Y91440
X120142Y91440
X123190Y91567
X122428Y93091
X122428Y95885
X120142Y98044
X121412Y96774
X121412Y99314
X122682Y98044
X123952Y96774
X123952Y95504
X119380Y99314
X119380Y100457
X121412Y100457
X127762Y92964
X126492Y96774
X113792Y99314
X116332Y80899
X118872Y80899
X127762Y80264
X116332Y99314
X124587Y90424
X120142Y86614
X115062Y86614
X105283Y82804
X117602Y82804
X122684Y88521
X121412Y89995
X118872Y83462
X120142Y82146
X116332Y91821
X115316Y90043
X120904Y90805
X114300Y91694
X114300Y93980
X118618Y93980
X111252Y96139
X121539Y95504
X127381Y82804
X3810Y114300
X19050Y113284
X21590Y113284
X6350Y114300
X13462Y115824
X9398Y117602
X10160Y109728
X12700Y122682
X3810Y115316
X6350Y115316
X19050Y112268
X20320Y111252
X1270Y113792
X24130Y113792
X1270Y120777
X5842Y122047
X9398Y122047
X8890Y115189
X1778Y106807
X6350Y107442
X19050Y107442
X8890Y112522
X20320Y119507
X15240Y118872
X13970Y117348
X16510Y117348
X19558Y117475
X18796Y118999
X18796Y121793
X16510Y123952
X17780Y122682
X17780Y125222
X19050Y123952
X20320Y122682
X20320Y121412
X15748Y125222
X15748Y126365
X17780Y126365
X24130Y118872
X22860Y122682
X10160Y125222
X12700Y106807
X15240Y106807
X24130Y106172
X12700Y125222
X20955Y116332
X16510Y112522
X11430Y112522
X1651Y108712
X13970Y108712
X19052Y114429
X17780Y115903
X15240Y109370
X16510Y108054
X12700Y117729
X11684Y115951
X17272Y116713
X10668Y117602
X10668Y119888
X14986Y119888
X7620Y122047
X17907Y121412
X23749Y108712
X29718Y114300
X44958Y113284
X47498Y113284
X32258Y114300
X39370Y115824
X35306Y117602
X36068Y109728
X38608Y122682
X29718Y115316
X32258Y115316
X44958Y112268
X46228Y111252
X27178Y113792
X50038Y113792
X27178Y120777
X31750Y122047
X35306Y122047
X34798Y115189
X27686Y106807
X32258Y107442
X44958Y107442
X34798Y112522
X46228Y119507
X41148Y118872
X39878Y117348
X42418Y117348
X45466Y117475
X44704Y118999
X44704Y121793
X42418Y123952
X43688Y122682
X43688Y125222
X44958Y123952
X46228Y122682
X46228Y121412
X41656Y125222
X41656Y126365
X43688Y126365
X50038Y118872
X48768Y122682
X36068Y125222
X38608Y106807
X41148Y106807
X50038Y106172
X38608Y125222
X46863Y116332
X42418Y112522
X37338Y112522
X27559Y108712
X39878Y108712
X44960Y114429
X43688Y115903
X41148Y109370
X42418Y108054
X38608Y117729
X37592Y115951
X43180Y116713
X36576Y117602
X36576Y119888
X40894Y119888
X33528Y122047
X43815Y121412
X49657Y108712
X55626Y114300
X70866Y113284
X73406Y113284
X58166Y114300
X65278Y115824
X61214Y117602
X61976Y109728
X64516Y122682
X55626Y115316
X58166Y115316
X70866Y112268
X72136Y111252
X53086Y113792
X75946Y113792
X53086Y120777
X57658Y122047
X61214Y122047
X60706Y115189
X53594Y106807
X58166Y107442
X70866Y107442
X60706Y112522
X72136Y119507
X67056Y118872
X65786Y117348
X68326Y117348
X71374Y117475
X70612Y118999
X70612Y121793
X68326Y123952
X69596Y122682
X69596Y125222
X70866Y123952
X72136Y122682
X72136Y121412
X67564Y125222
X67564Y126365
X69596Y126365
X75946Y118872
X3810Y10668
X61976Y125222
X64516Y106807
X67056Y106807
X75946Y106172
X64516Y125222
X72771Y116332
X68326Y112522
X63246Y112522
X53467Y108712
X65786Y108712
X70868Y114429
X69596Y115903
X67056Y109370
X68326Y108054
X64516Y117729
X63500Y115951
X69088Y116713
X62484Y117602
X62484Y119888
X66802Y119888
X59436Y122047
X69723Y121412
X75565Y108712
X81534Y114300
X96774Y113284
X99314Y113284
X84074Y114300
X91186Y115824
X87122Y117602
X87884Y109728
X90424Y122682
X81534Y115316
X84074Y115316
X96774Y112268
X98044Y111252
X78994Y113792
X101854Y113792
X78994Y120777
X83566Y122047
X87122Y122047
X86614Y115189
X79502Y106807
X84074Y107442
X96774Y107442
X86614Y112522
X98044Y119507
X92964Y118872
X91694Y117348
X94234Y117348
X97282Y117475
X96520Y118999
X96520Y121793
X94234Y123952
X95504Y122682
X95504Y125222
X96774Y123952
X98044Y122682
X98044Y121412
X93472Y125222
X93472Y126365
X95504Y126365
X101854Y118872
X100584Y122682
X87884Y125222
X90424Y106807
X92964Y106807
X101854Y106172
X90424Y125222
X98679Y116332
X94234Y112522
X89154Y112522
X79375Y108712
X91694Y108712
X96776Y114429
X95504Y115903
X92964Y109370
X94234Y108054
X90424Y117729
X89408Y115951
X94996Y116713
X88392Y117602
X88392Y119888
X92710Y119888
X85344Y122047
X95631Y121412
X101473Y108712
X107442Y114300
X122682Y113284
X125222Y113284
X109982Y114300
X117094Y115824
X113030Y117602
X113792Y109728
X116332Y122682
X107442Y115316
X109982Y115316
X122682Y112268
X123952Y111252
X104902Y113792
X127762Y113792
X104902Y120777
X109474Y122047
X113030Y122047
X112522Y115189
X105410Y106807
X109982Y107442
X122682Y107442
X112522Y112522
X123952Y119507
X118872Y118872
X117602Y117348
X120142Y117348
X123190Y117475
X122428Y118999
X122428Y121793
X120142Y123952
X121412Y122682
X121412Y125222
X122682Y123952
X123952Y122682
X123952Y121412
X119380Y125222
X119380Y126365
X121412Y126365
X127762Y118872
X126492Y122682
X113792Y125222
X116332Y106807
X118872Y106807
X127762Y106172
X116332Y125222
X124587Y116332
X120142Y112522
X115062Y112522
X105283Y108712
X117602Y108712
X122684Y114429
X121412Y115903
X118872Y109370
X120142Y108054
X116332Y117729
X115316Y115951
X120904Y116713
X114300Y117602
X114300Y119888
X118618Y119888
X111252Y122047
X121539Y121412
X127381Y108712
X19050Y9652
X21590Y9652
X6350Y10668
X13462Y12192
X9398Y13970
X10160Y6096
X12700Y19050
X3810Y11684
X6350Y11684
X19050Y8636
X20320Y7620
X1270Y10160
X24130Y10160
X1270Y17145
X5842Y18415
X9398Y18415
X8890Y11557
X1778Y3175
X6350Y3810
X19050Y3810
X8890Y8890
X20320Y15875
X15240Y15240
X13970Y13716
X16510Y13716
X19558Y13843
X18796Y15367
X18796Y18161
X16510Y20320
X17780Y19050
X17780Y21590
X19050Y20320
X20320Y19050
X20320Y17780
X15748Y21590
X15748Y22733
X17780Y22733
X24130Y15240
X22860Y19050
X10160Y21590
X12700Y3175
X15240Y3175
X24130Y2540
X12700Y21590
X20955Y12700
X16510Y8890
X11430Y8890
X1651Y5080
X13970Y5080
X19052Y10797
X17780Y12271
X15240Y5738
X16510Y4422
X12700Y14097
X11684Y12319
X17272Y13081
X10668Y13970
X10668Y16256
X14986Y16256
X7620Y18415
X17907Y17780
X23749Y5080
X29718Y10668
X44958Y9652
X47498Y9652
X32258Y10668
X39370Y12192
X35306Y13970
X36068Y6096
X38608Y19050
X29718Y11684
X32258Y11684
X44958Y8636
X46228Y7620
X27178Y10160
X50038Y10160
X27178Y17145
X31750Y18415
X35306Y18415
X34798Y11557
X27686Y3175
X32258Y3810
X44958Y3810
X34798Y8890
X46228Y15875
X41148Y15240
X39878Y13716
X9398Y91694
X42418Y13716
X45466Y13843
X44704Y15367
X44704Y18161
X42418Y20320
X43688Y19050
X43688Y21590
X44958Y20320
X46228Y19050
X46228Y17780
X41656Y21590
X41656Y22733
X43688Y22733
X50038Y15240
X48768Y19050
X36068Y21590
X38608Y3175
X41148Y3175
X50038Y2540
X38608Y21590
X46863Y12700
X42418Y8890
X37338Y8890
X27559Y5080
X39878Y5080
X44960Y10797
X43688Y12271
X41148Y5738
X42418Y4422
X38608Y14097
X37592Y12319
X43180Y13081
X36576Y13970
X36576Y16256
X40894Y16256
X33528Y18415
X43815Y17780
X49657Y5080
X55626Y10668
X70866Y9652
X73406Y9652
X58166Y10668
X65278Y12192
X61214Y13970
X61976Y6096
X64516Y19050
X55626Y11684
X58166Y11684
X70866Y8636
X72136Y7620
X53086Y10160
X75946Y10160
X53086Y17145
X57658Y18415
X61214Y18415
X60706Y11557
X53594Y3175
X58166Y3810
X70866Y3810
X60706Y8890
X72136Y15875
X67056Y15240
X65786Y13716
X68326Y13716
X71374Y13843
X70612Y15367
X70612Y18161
X68326Y20320
X69596Y19050
X69596Y21590
X70866Y20320
X72136Y19050
X72136Y17780
X67564Y21590
X67564Y22733
X69596Y22733
X75946Y15240
X74676Y19050
X61976Y21590
X64516Y3175
X67056Y3175
X75946Y2540
X64516Y21590
X72771Y12700
X68326Y8890
X63246Y8890
X53467Y5080
X65786Y5080
X70868Y10797
X69596Y12271
X67056Y5738
X68326Y4422
X64516Y14097
X63500Y12319
X69088Y13081
X62484Y13970
X62484Y16256
X66802Y16256
X59436Y18415
X69723Y17780
X75565Y5080
X81534Y10668
X96774Y9652
X99314Y9652
X84074Y10668
X91186Y12192
X87122Y13970
X87884Y6096
X90424Y19050
X81534Y11684
X84074Y11684
X96774Y8636
X98044Y7620
X78994Y10160
X101854Y10160
X78994Y17145
X83566Y18415
X87122Y18415
X86614Y11557
X79502Y3175
X84074Y3810
X96774Y3810
X86614Y8890
X98044Y15875
X92964Y15240
X91694Y13716
X94234Y13716
X97282Y13843
X96520Y15367
X96520Y18161
X94234Y20320
X95504Y19050
X95504Y21590
X96774Y20320
X98044Y19050
X98044Y17780
X93472Y21590
X93472Y22733
X95504Y22733
X101854Y15240
X100584Y19050
X87884Y21590
X90424Y3175
X92964Y3175
X101854Y2540
X90424Y21590
X98679Y12700
X94234Y8890
X89154Y8890
X91694Y5080
X96776Y10797
X95504Y12271
X92964Y5738
X94234Y4422
X90424Y14097
X89408Y12319
X94996Y13081
X88392Y13970
X88392Y16256
X92710Y16256
X85344Y18415
X95631Y17780
X101473Y5080
X107442Y10668
X122682Y9652
X125222Y9652
X109982Y10668
X117094Y12192
X113030Y13970
X113792Y6096
X116332Y19050
X107442Y11684
X109982Y11684
X122682Y8636
X123952Y7620
X104902Y10160
X127762Y10160
X104902Y17145
X109474Y18415
X113030Y18415
X112522Y11557
X105410Y3175
X109982Y3810
X122682Y3810
X112522Y8890
X123952Y15875
X118872Y15240
X117602Y13716
X120142Y13716
X123190Y13843
X122428Y15367
X122428Y18161
X120142Y20320
X121412Y19050
X121412Y21590
X122682Y20320
X123952Y19050
X123952Y17780
X119380Y21590
X119380Y22733
X121412Y22733
X127762Y15240
X126492Y19050
X113792Y21590
X116332Y3175
X118872Y3175
X127762Y2540
X116332Y21590
X124587Y12700
X120142Y8890
X115062Y8890
X105283Y5080
X117602Y5080
X122684Y10797
X121412Y12271
X118872Y5738
X120142Y4422
X116332Y14097
X115316Y12319
X120904Y13081
X114300Y13970
X114300Y16256
X118618Y16256
X111252Y18415
X121539Y17780
X127381Y5080
X3810Y36576
X19050Y35560
X21590Y35560
X6350Y36576
X13462Y38100
X9398Y39878
X10160Y32004
X12700Y44958
X3810Y37592
X6350Y37592
X74676Y122682
M30